<?xml version="1.0" encoding="UTF-8" standalone="no"?>
<svg width="19px" height="19px" viewBox="0 0 20 20" version="1.1" xmlns="http://www.w3.org/2000/svg">
    <g id="orga-icon" stroke="none" stroke-width="1" fill="none" fill-rule="evenodd">
        <path d="M1.99079514,0 C0.891309342,0 0,0.898212381 0,1.99079514 L0,18.0092049 C0,19.1086907 0.898212381,20 1.99079514,20 L18.0092049,20 C19.1086907,20 20,19.1017876 20,18.0092049 L20,1.99079514 C20,0.891309342 19.1017876,0 18.0092049,0 L1.99079514,0 Z M1,6 L1,16.9972399 C1,18.1033337 1.8926228,19 2.99508929,19 L17.0049107,19 C18.1067681,19 19,18.1064574 19,16.9972399 L19,6 L1,6 Z M2.5,1 C1.67157288,1 1,1.67854548 1,2.50083274 L1,5 L4,5 L4,1 L2.5,1 Z M5,1 L5,5 L8,5 L8,1 L5,1 Z M9,1 L9,5 L19,5 L19,3 C19,1.8954305 18.1125667,1 17.000385,1 L9,1 Z" id="Shape" fill="#69717A"></path>
    </g>
</svg>