<?xml version="1.0" encoding="utf-8"?>
<!-- Generator: Adobe Illustrator 21.0.0, SVG Export Plug-In . SVG Version: 6.00 Build 0)  -->
<svg version="1.1" id="Layer_1" xmlns="http://www.w3.org/2000/svg" xmlns:xlink="http://www.w3.org/1999/xlink" x="0px" y="0px"
	 viewBox="0 0 70 78.1" style="enable-background:new 0 0 70 78.1;" xml:space="preserve">
<style type="text/css">
	.st0{fill:#EDEDED;}
	.st1{fill:#FFFFFF;}
	.st2{fill:#17B9E6;}
	.st3{fill:#F4F4F4;}
</style>
<g>
	<path class="st0" d="M32.1,0.9l-30,21.4C0.8,23.2,0,24.8,0,26.4v1.7h70v-1.7c0-1.6-0.8-3.2-2.1-4.1l-30-21.4
		C36.2-0.3,33.8-0.3,32.1,0.9z"/>
	<path class="st0" d="M0,73.1v-45h70v45c0,2.8-2.3,5-5,5H5C2.3,78.1,0,75.9,0,73.1z"/>
	
		<rect x="16.6" y="3.6" transform="matrix(-1.836970e-16 1 -1 -1.836970e-16 68.0387 -1.9615)" class="st1" width="36.7" height="59"/>
	<g>
		
			<rect x="32.9" y="43.4" transform="matrix(0.9482 -0.3176 0.3176 0.9482 -12.6245 13.4696)" class="st2" width="4.2" height="4.1"/>
		<path class="st2" d="M48.8,41.3c-3.1-10.3-7.6-12.7-17.9-9.6c-10.3,3.1-12.7,7.6-9.6,17.9c3.1,10.3,7.6,12.7,17.9,9.6
			C49.5,56.1,51.9,51.7,48.8,41.3z M43.5,48l-1.9,0.7l0.7,2c0.3,0.8-0.2,1.7-1,2c-0.2,0.1-0.4,0.1-0.5,0.1c-0.6,0-1.2-0.4-1.4-1.1
			l-0.7-2l-4,1.3l0.7,2c0.3,0.8-0.2,1.7-1,2c-0.2,0.1-0.4,0.1-0.5,0.1c-0.6,0-1.2-0.4-1.4-1.1l-0.7-2l-1.9,0.7
			c-0.2,0.1-0.4,0.1-0.5,0.1c-0.6,0-1.2-0.4-1.4-1.1c-0.3-0.8,0.2-1.7,1-2l1.9-0.7l-1.3-3.9l-1.9,0.7c-0.2,0.1-0.4,0.1-0.5,0.1
			c-0.6,0-1.2-0.4-1.4-1.1c-0.3-0.8,0.2-1.7,1-2l1.9-0.7l-0.7-2c-0.3-0.8,0.2-1.7,1-2c0.8-0.3,1.7,0.2,2,1l0.7,2l4-1.3l-0.7-2
			c-0.3-0.8,0.2-1.7,1-2c0.8-0.3,1.7,0.2,2,1l0.7,2l1.9-0.7c0.8-0.3,1.7,0.2,2,1c0.3,0.8-0.2,1.7-1,2l-1.9,0.7l1.3,3.9l1.9-0.7
			c0.8-0.3,1.7,0.2,2,1C44.8,46.9,44.4,47.8,43.5,48z"/>
	</g>
	<path class="st3" d="M0,73.1v-45l35,25l35-25v45c0,2.8-2.3,5-5,5H5C2.3,78.1,0,75.9,0,73.1z"/>
</g>
</svg>
