<svg version="1.1" id="Layer_1" xmlns="http://www.w3.org/2000/svg" xmlns:xlink="http://www.w3.org/1999/xlink" x="0px" y="0px"
	 viewBox="0 0 450 90">
<style type="text/css">
	.st0{fill:#FFFFFF;}
	.st1{fill:#F0DB4F;}
	.st2{fill:#83CD29;}
	.st3{fill:#00BAE8;}
	.st4{fill:#F9AC41;}
	.st5{fill:#F3F3F3;}
	.st6{fill:#5A9FD4;}
	.st7{fill:#FFD43B;}
	.st8{fill:#D91404;}
	.st9{fill:#00FF00;}
	.st10{fill:#A4C439;}
	.st11{fill:#68217A;}
</style>
<path class="st0" d="M5.5,5.5v34h34v-34H5.5z M23.5,34.5c-0.5,1-1.5,1.7-2.6,2c-1.7,0.4-3.3,0.2-4.6-0.6c-0.8-0.5-1.4-1.3-1.9-2.1
	l2.6-1.6c0,0,0.1,0.1,0.2,0.3c0.3,0.6,0.6,0.9,1.2,1.2c0.5,0.2,1.8,0.3,2.2-0.7c0.3-0.5,0.2-2.1,0.2-3.8c0-2.8,0-5.5,0-8.2H24
	c0,3,0,5.8,0,8.7C24.1,31.5,24.2,33.1,23.5,34.5z M36.7,33.6c-1.1,3.8-7.3,3.9-9.7,1.4c-0.5-0.6-0.8-0.9-1.2-1.6
	c1.3-0.8,1.3-0.8,2.6-1.5c0.7,1.1,1.3,1.7,2.5,1.9c1.6,0.2,3.1-0.3,2.8-2c-0.4-1.4-3.2-1.7-5.1-3.1c-2-1.3-2.4-4.5-0.8-6.3
	c0.5-0.7,1.5-1.2,2.4-1.4l1-0.1c1.9,0,3.1,0.5,4,1.5c0.2,0.2,0.4,0.5,0.8,1.1c-1,0.7-1,0.6-2.5,1.6c-0.3-0.7-0.8-1.1-1.4-1.3
	c-0.9-0.3-1.9,0-2.2,0.9c-0.1,0.3-0.1,0.5,0.1,1c0.3,0.8,1.5,1.1,2.6,1.6c3,1.2,4,2.5,4.3,4.1C37,32.6,36.7,33.4,36.7,33.6z"/>
<path class="st0" d="M127.1,12.5L114,4.9c-0.8-0.5-1.9-0.5-2.7,0L98,12.5c-0.9,0.5-1.4,1.4-1.4,2.4v15.2c0,1,0.6,1.9,1.4,2.4l3.5,2
	c1.7,0.8,2.1,0.8,2.9,0.8c2.5,0,3.8-1.5,3.8-4.1v-15c0-0.2,0.1-0.5-0.1-0.5h-1.7c-0.2,0-0.6,0.3-0.6,0.5v15c0,1.2-1.1,2.3-3,1.3
	l-3.6-2.1C99,30.4,99,30.3,99,30.1V14.9c0-0.1,0.1-0.3,0.3-0.4l13.2-7.6c0.1-0.1,0.3-0.1,0.4,0l13.1,7.6c0.1,0.1,0.1,0.2,0.1,0.4
	v15.2c0,0.1,0,0.3-0.1,0.4l-13.1,7.6c-0.1,0.1-0.3,0.1-0.4,0l-3.4-2c-0.1-0.1-0.2-0.1-0.3,0c-0.9,0.5-1.1,0.6-2,0.9
	c-0.2,0.1-0.5,0.2,0.1,0.6l4.4,2.6c0.4,0.2,0.9,0.4,1.4,0.4c0.5,0,1-0.1,1.4-0.4l13.1-7.6c0.9-0.5,1.3-1.4,1.3-2.4V14.9
	C128.4,13.9,128,13,127.1,12.5z M116.7,27.7c-3.5,0-4.3-1-4.5-2.7c0-0.2-0.2-0.4-0.4-0.4h-1.7c-0.2,0-0.4,0.3-0.4,0.5
	c0,2.2,1.2,4.9,7,4.9c4.2,0,6.6-1.6,6.6-4.5c0-2.8-1.9-3.6-6-4.1c-4.1-0.5-4.5-0.8-4.5-1.8c0-0.8,0.4-1.8,3.4-1.8
	c2.7,0,3.7,0.6,4.1,2.4c0,0.2,0.2,0.3,0.4,0.3h1.7c0.1,0,0.2,0,0.3-0.1c0.1-0.1,0.1-0.2,0.1-0.3c-0.3-3.1-2.4-4.6-6.6-4.6
	c-3.8,0-6,1.6-6,4.2c0,2.9,2.2,3.7,5.8,4c4.3,0.4,4.7,1.1,4.7,1.9C120.7,27.1,119.5,27.7,116.7,27.7z"/>
<path class="st0" d="M67.5,11.9c-11.6,0-21,4.8-21,10.6s9.4,10.6,21,10.6s21-4.8,21-10.6S79.1,11.9,67.5,11.9z M62,24.6
	c-0.5,0.5-1.1,0.7-1.7,0.9c-0.6,0.2-1.4,0.2-2.3,0.2h-2.1L55.3,29h-2.5L55,17.3h4.8c1.5,0,2.5,0.4,3.2,1.2c0.7,0.8,0.9,1.8,0.6,3.2
	c-0.1,0.6-0.3,1.1-0.6,1.6C62.8,23.8,62.5,24.2,62,24.6z M69.4,25.6l1-5c0.1-0.6,0.1-1-0.1-1.2c-0.2-0.2-0.6-0.4-1.2-0.4h-2
	l-1.3,6.5h-2.5l2.2-11.3h2.5l-0.6,3.1h2.2c1.4,0,2.4,0.3,2.9,0.8c0.5,0.5,0.7,1.2,0.5,2.2l-1,5.2H69.4z M83.2,21.8
	c-0.1,0.6-0.3,1.1-0.6,1.5c-0.3,0.5-0.6,0.9-1,1.3c-0.5,0.5-1.1,0.7-1.7,0.9c-0.6,0.2-1.4,0.2-2.3,0.2h-2.1L74.9,29h-2.5l2.2-11.7
	h4.8c1.5,0,2.5,0.4,3.2,1.2C83.3,19.3,83.5,20.4,83.2,21.8z M78.5,19.1h-1.7l-0.9,4.8h1.5c1,0,1.8-0.1,2.3-0.5c0.5-0.4,0.8-1,1-1.9
	c0.2-0.9,0.1-1.5-0.2-1.9C80.1,19.3,79.4,19.1,78.5,19.1z M58.9,19.1h-1.7l-0.9,4.8h1.5c1,0,1.8-0.1,2.3-0.5c0.5-0.4,0.8-1,1-1.9
	c0.2-0.9,0.1-1.5-0.2-1.9S59.8,19.1,58.9,19.1z"/>
<path class="st0" d="M206.4,7.3c14.9,10.2,10.1,21.3,10.1,21.3s4.2,4.8,2.5,9c0,0-1.8-2.9-4.7-2.9c-2.8,0-4.5,2.9-10.2,2.9
	c-12.7,0-18.7-10.6-18.7-10.6c11.4,7.5,19.2,2.2,19.2,2.2c-5.2-3-16.1-17.3-16.1-17.3c9.6,8.1,13.7,10.3,13.7,10.3
	c-2.5-2-9.4-12-9.4-12c5.5,5.6,16.5,13.4,16.5,13.4C212.6,15,206.4,7.3,206.4,7.3z"/>
<path class="st0" d="M256.8,23.6c0,5.1,4.5,6.9,4.6,6.9c0,0.1-0.7,2.4-2.4,4.8c-1.4,2.1-2.9,4.1-5.2,4.2c-2.3,0-3-1.4-5.6-1.4
	c-2.6,0-3.4,1.3-5.6,1.4c-2.2,0.1-3.9-2.2-5.4-4.3c-2.9-4.2-5.2-11.9-2.2-17.1c1.5-2.6,4.1-4.2,7-4.3c2.2,0,4.3,1.5,5.6,1.5
	c1.3,0,3.9-1.8,6.5-1.6c1.1,0,4.2,0.4,6.2,3.4C260.3,17.2,256.7,19.3,256.8,23.6 M252.5,10.9c1.2-1.4,2-3.4,1.8-5.4
	c-1.7,0.1-3.8,1.1-5,2.6c-1.1,1.3-2.1,3.3-1.8,5.3C249.4,13.5,251.3,12.4,252.5,10.9"/>
<g>
	<path class="st0" d="M337.3,5.5c-1.4,0-2.7,0.1-3.9,0.3c-3.4,0.6-4.1,1.9-4.1,4.2v3.1h8.1v1h-11.2c-2.4,0-4.4,1.4-5.1,4.1
		c-0.7,3.1-0.8,5,0,8.2c0.6,2.4,2,4.1,4.3,4.1h2.8v-3.7c0-2.7,2.3-5,5.1-5h8.1c2.3,0,4.1-1.9,4.1-4.1V10c0-2.2-1.9-3.8-4.1-4.2
		C340.1,5.6,338.7,5.5,337.3,5.5z M332.9,8c0.8,0,1.5,0.7,1.5,1.6c0,0.9-0.7,1.5-1.5,1.5c-0.8,0-1.5-0.7-1.5-1.5
		C331.4,8.7,332.1,8,332.9,8z"/>
	<path class="st0" d="M346.6,14.2v3.6c0,2.8-2.4,5.1-5.1,5.1h-8.1c-2.2,0-4.1,1.9-4.1,4.1v7.7c0,2.2,1.9,3.5,4.1,4.1
		c2.6,0.8,5,0.9,8.1,0c2-0.6,4.1-1.8,4.1-4.1v-3.1h-8.1v-1h12.2c2.4,0,3.2-1.6,4.1-4.1c0.8-2.5,0.8-5,0-8.2
		c-0.6-2.3-1.7-4.1-4.1-4.1L346.6,14.2L346.6,14.2z M342,33.7c0.8,0,1.5,0.7,1.5,1.5c0,0.9-0.7,1.6-1.5,1.6c-0.8,0-1.5-0.7-1.5-1.6
		C340.5,34.4,341.2,33.7,342,33.7z"/>
</g>
<path class="st0" d="M149.8,35.5c7.5,1,14.9,2,22.5,3.1c-2.6-4.3-5.1-8.4-7.6-12.6L149.8,35.5z M174.4,11.8c-0.7,1-1.3,2-2,3
	c-2.3,3.4-4.6,6.8-6.8,10.3c-0.1,0.2-0.3,0.3-0.1,0.6c2.2,3.6,4.4,7.3,6.6,10.9c0.3,0.6,0.7,1.1,1.1,1.7
	C173.6,29.5,174.1,20.6,174.4,11.8C174.5,11.8,174.4,11.8,174.4,11.8z M144.4,23.1c0.1,0.1,0.4,0.2,0.5,0.1c2.1-1,4.2-2,6.3-3.2
	c0.7-0.4,1.2-1,1.8-1.6c1.9-1.8,3.8-3.5,5.7-5.3c0.1-0.1,0.3-0.2,0.3-0.3c0.7-1.3,1.4-2.7,2.1-4.1c-0.8-0.3-1.6-0.6-2.4-0.9
	c-0.1,0-0.3,0-0.4,0.1c-1.9,1-3.7,2-5.5,3.1c-0.9,0.6-1.6,1.4-2.4,2.1c-1.3,1.2-2.6,2.3-3.8,3.5c-0.3,0.3-0.6,0.7-0.9,1.1
	c-0.9,1.3-1.7,2.5-2.6,3.8C143.5,22.2,143.9,22.7,144.4,23.1z M152.1,21.4c-1,4.4-2.1,8.8-3.2,13.4c5-3.3,10-6.4,14.9-9.6
	C159.9,23.9,156,22.7,152.1,21.4z M173.1,11.8c-4.3,0.7-8.4,1.4-12.6,2.1c1.4,3.5,2.8,6.9,4.3,10.4
	C167.6,20.2,170.3,16.1,173.1,11.8z M152.3,20.5c3.8,1.2,7.6,2.5,11.5,3.7c-1.4-3.5-2.8-6.9-4.2-10.3
	C157.1,16.1,154.7,18.3,152.3,20.5z M144.6,25.7c-1.4,3.3-2.7,6.4-4,9.6c2.6-0.1,5.1-0.1,7.7-0.2C147,31.9,145.8,28.9,144.6,25.7z
	 M148.3,32.8L148.3,32.8c1-3.8,1.9-7.6,2.9-11.6c-2.1,1.1-4.1,2.1-6.1,3.2C146.1,27.1,147.2,30,148.3,32.8z M171.6,11.2
	c-1.2-0.3-2.4-0.6-3.7-1c-1.8-0.5-3.5-0.9-5.3-1.4c-0.2-0.1-0.4-0.1-0.5,0.2c-0.6,1.3-1.3,2.5-1.9,3.8c0,0,0,0.1,0,0.2
	C164,12.4,167.8,11.9,171.6,11.2C171.6,11.3,171.6,11.2,171.6,11.2z M164.5,8.3l10,2.8c-0.6-1.6-1.1-3.1-1.6-4.7L164.5,8.3
	C164.5,8.2,164.5,8.3,164.5,8.3z M149.1,36.2c-1.2-0.1-2.5,0-3.8,0c-1,0-2.1,0.1-3.1,0.1c-0.1,0-0.2,0-0.3,0.1
	c8.5,0.8,17,1.6,25.5,2.4l0-0.1c-2.7-0.4-5.4-0.7-8.2-1.1C155.9,37.1,152.5,36.6,149.1,36.2z M140.7,32.4c1.1-2.5,2.2-5.1,3.3-7.6
	c0.1-0.3,0.1-0.4-0.1-0.6c-0.5-0.4-0.9-0.9-1.4-1.4c-0.7,3.4-1.3,6.6-2,9.9l0.1,0C140.6,32.5,140.7,32.5,140.7,32.4z M162.3,7.7
	c1.8-0.5,3.7-0.8,5.6-1.3c0.1,0,0.2-0.1,0.4-0.1l0-0.1c-2.6,0.4-5.2,0.7-8,1.1C161,7.6,161.6,7.9,162.3,7.7z"/>
<path class="st0" d="M397,8.5h-29c-1.4,0-2.5,1.1-2.5,2.5V34c0,1.4,1.1,2.5,2.5,2.5h29c1.4,0,2.5-1.1,2.5-2.5V11
	C399.5,9.7,398.4,8.5,397,8.5z M375.2,17.6l-5.4,2.2V18l3.7-1.4l-3.7-1.4v-1.8l5.4,2.2V17.6z M382.6,22.9h-7v-1.4h7V22.9z"/>
<path class="st0" d="M280.2,16.5c-1.2,0-2.1,0.9-2.1,2.1l0,8.8c0,1.2,0.9,2.1,2.1,2.1c1.2,0,2.1-0.9,2.1-2.1v-8.8
	C282.3,17.4,281.4,16.5,280.2,16.5 M297.1,8.6l1.5-2.7c0.1-0.1,0-0.3-0.1-0.4c-0.1-0.1-0.3,0-0.4,0.1l-1.5,2.7
	c-1.2-0.6-2.6-0.9-4.1-0.9c-1.5,0-2.9,0.3-4.1,0.9l-1.5-2.7c-0.1-0.1-0.3-0.2-0.4-0.1c-0.1,0.1-0.2,0.3-0.1,0.4l1.5,2.7
	c-2.9,1.5-4.8,4.3-4.8,7.6l18.9,0C301.9,12.9,300,10.1,297.1,8.6 M288.2,12.7c-0.4,0-0.8-0.4-0.8-0.8c0-0.4,0.4-0.8,0.8-0.8
	c0.4,0,0.8,0.4,0.8,0.8C289,12.4,288.6,12.7,288.2,12.7 M296.8,12.7c-0.4,0-0.8-0.4-0.8-0.8c0-0.4,0.4-0.8,0.8-0.8
	c0.4,0,0.8,0.4,0.8,0.8C297.6,12.4,297.2,12.7,296.8,12.7 M283.1,16.9l0,13.6c0,1.2,1,2.2,2.2,2.2l1.5,0l0,4.6
	c0,1.2,0.9,2.1,2.1,2.1c1.2,0,2.1-0.9,2.1-2.1l0-4.6l2.8,0l0,4.6c0,1.2,0.9,2.1,2.1,2.1c1.2,0,2.1-0.9,2.1-2.1l0-4.6l1.5,0
	c1.2,0,2.2-1,2.2-2.2l0-13.6L283.1,16.9L283.1,16.9z M306.9,18.6c0-1.2-0.9-2.1-2.1-2.1c-1.2,0-2.1,0.9-2.1,2.1l0,8.8
	c0,1.2,0.9,2.1,2.1,2.1c1.2,0,2.1-0.9,2.1-2.1L306.9,18.6z"/>
<g>
	<path class="st0" d="M442.2,14.1L442.2,14.1c-0.1-0.4-0.3-0.6-0.6-0.8l-13.3-7.6c-0.2-0.1-0.5-0.2-0.9-0.2s-0.6,0.1-0.9,0.2
		l-13.2,7.7c-0.5,0.3-0.8,1-0.8,1.5v15.3c0,0.3,0.1,0.6,0.2,0.9l-0.1,0c0.1,0.2,0.3,0.4,0.5,0.5l13.2,7.7c0.2,0.1,0.5,0.2,0.9,0.2
		s0.6-0.1,0.9-0.2l13.2-7.7c0.5-0.3,0.8-1,0.8-1.5V14.8C442.4,14.6,442.3,14.4,442.2,14.1z M427.5,33.3c-6,0-10.9-4.9-10.9-10.9
		s4.9-10.9,10.9-10.9c4,0,7.6,2.2,9.4,5.5l-3.6,2.1c-1.2-2.1-3.4-3.4-5.9-3.4c-3.7,0-6.7,3-6.7,6.7s3,6.7,6.7,6.7
		c2.5,0,4.7-1.4,5.9-3.4l3.5,2.1C435,31.1,431.5,33.3,427.5,33.3z M441.5,21.9h-0.9l-0.2,1.1h1.1v1.4h-1.4l-0.3,1.6h-1.3l0.3-1.6h-1
		l-0.3,1.6h-1.3l0.3-1.6h-0.7V23h1l0.2-1.1h-1.2v-1.4h1.5l0.3-1.6h1.3l-0.3,1.6h1l0.3-1.6h1.3l-0.3,1.6h0.6V21.9z M438,23h1l0.2-1.1
		h-1L438,23z"/>
</g>
<path class="st1" d="M5.5,50.5v34h34v-34H5.5z M23.5,79.5c-0.5,1-1.5,1.7-2.6,2c-1.7,0.4-3.3,0.2-4.6-0.6c-0.8-0.5-1.4-1.3-1.9-2.1
	l2.6-1.6c0,0,0.1,0.1,0.2,0.3c0.3,0.6,0.6,0.9,1.2,1.2c0.5,0.2,1.8,0.3,2.2-0.7c0.3-0.5,0.2-2.1,0.2-3.8c0-2.8,0-5.5,0-8.2H24
	c0,3,0,5.8,0,8.7C24.1,76.5,24.2,78.1,23.5,79.5z M36.7,78.6c-1.1,3.8-7.3,3.9-9.7,1.4c-0.5-0.6-0.8-0.9-1.2-1.6
	c1.3-0.8,1.3-0.8,2.6-1.5c0.7,1.1,1.3,1.7,2.5,1.9c1.6,0.2,3.1-0.3,2.8-2c-0.4-1.4-3.2-1.7-5.1-3.1c-2-1.3-2.4-4.5-0.8-6.3
	c0.5-0.7,1.5-1.2,2.4-1.4l1-0.1c1.9,0,3.1,0.5,4,1.5c0.2,0.2,0.4,0.5,0.8,1.1c-1,0.7-1,0.6-2.5,1.6c-0.3-0.7-0.8-1.1-1.4-1.3
	c-0.9-0.3-1.9,0-2.2,0.9c-0.1,0.3-0.1,0.5,0.1,1c0.3,0.8,1.5,1.1,2.6,1.6c3,1.2,4,2.5,4.3,4.1C37,77.6,36.7,78.4,36.7,78.6z"/>
<path class="st2" d="M127.1,57.5L114,49.9c-0.8-0.5-1.9-0.5-2.7,0L98,57.5c-0.9,0.5-1.4,1.4-1.4,2.4v15.2c0,1,0.6,1.9,1.4,2.4l3.5,2
	c1.7,0.8,2.1,0.8,2.9,0.8c2.5,0,3.8-1.5,3.8-4.1v-15c0-0.2,0.1-0.5-0.1-0.5h-1.7c-0.2,0-0.6,0.3-0.6,0.5v15c0,1.2-1.1,2.3-3,1.3
	l-3.6-2.1C99,75.4,99,75.3,99,75.1V59.9c0-0.1,0.1-0.3,0.3-0.4l13.2-7.6c0.1-0.1,0.3-0.1,0.4,0l13.1,7.6c0.1,0.1,0.1,0.2,0.1,0.4
	v15.2c0,0.1,0,0.3-0.1,0.4l-13.1,7.6c-0.1,0.1-0.3,0.1-0.4,0l-3.4-2c-0.1-0.1-0.2-0.1-0.3,0c-0.9,0.5-1.1,0.6-2,0.9
	c-0.2,0.1-0.5,0.2,0.1,0.6l4.4,2.6c0.4,0.2,0.9,0.4,1.4,0.4c0.5,0,1-0.1,1.4-0.4l13.1-7.6c0.9-0.5,1.3-1.4,1.3-2.4V59.9
	C128.4,58.9,128,58,127.1,57.5z M116.7,72.7c-3.5,0-4.3-1-4.5-2.7c0-0.2-0.2-0.4-0.4-0.4h-1.7c-0.2,0-0.4,0.3-0.4,0.5
	c0,2.2,1.2,4.9,7,4.9c4.2,0,6.6-1.6,6.6-4.5c0-2.8-1.9-3.6-6-4.1c-4.1-0.5-4.5-0.8-4.5-1.8c0-0.8,0.4-1.8,3.4-1.8
	c2.7,0,3.7,0.6,4.1,2.4c0,0.2,0.2,0.3,0.4,0.3h1.7c0.1,0,0.2,0,0.3-0.1c0.1-0.1,0.1-0.2,0.1-0.3c-0.3-3.1-2.4-4.6-6.6-4.6
	c-3.8,0-6,1.6-6,4.2c0,2.9,2.2,3.7,5.8,4c4.3,0.4,4.7,1.1,4.7,1.9C120.7,72.1,119.5,72.7,116.7,72.7z"/>
<path class="st3" d="M67.5,56.9c-11.6,0-21,4.8-21,10.6s9.4,10.6,21,10.6s21-4.8,21-10.6S79.1,56.9,67.5,56.9z M62,69.6
	c-0.5,0.5-1.1,0.7-1.7,0.9c-0.6,0.2-1.4,0.2-2.3,0.2h-2.1L55.3,74h-2.5L55,62.3h4.8c1.5,0,2.5,0.4,3.2,1.2s0.9,1.8,0.6,3.2
	c-0.1,0.6-0.3,1.1-0.6,1.6C62.8,68.8,62.5,69.2,62,69.6z M69.4,70.6l1-5c0.1-0.6,0.1-1-0.1-1.2c-0.2-0.2-0.6-0.4-1.2-0.4h-2
	l-1.3,6.5h-2.5l2.2-11.3h2.5l-0.6,3.1h2.2c1.4,0,2.4,0.3,2.9,0.8s0.7,1.2,0.5,2.2l-1,5.2H69.4z M83.2,66.8c-0.1,0.6-0.3,1.1-0.6,1.5
	c-0.3,0.5-0.6,0.9-1,1.3c-0.5,0.5-1.1,0.7-1.7,0.9c-0.6,0.2-1.4,0.2-2.3,0.2h-2.1L74.9,74h-2.5l2.2-11.7h4.8c1.5,0,2.5,0.4,3.2,1.2
	C83.3,64.3,83.5,65.4,83.2,66.8z M78.5,64.1h-1.7l-0.9,4.8h1.5c1,0,1.8-0.1,2.3-0.5c0.5-0.4,0.8-1,1-1.9c0.2-0.9,0.1-1.5-0.2-1.9
	C80.1,64.3,79.4,64.1,78.5,64.1z M58.9,64.1h-1.7l-0.9,4.8h1.5c1,0,1.8-0.1,2.3-0.5c0.5-0.4,0.8-1,1-1.9c0.2-0.9,0.1-1.5-0.2-1.9
	S59.8,64.1,58.9,64.1z"/>
<path class="st4" d="M206.4,52.3c14.9,10.2,10.1,21.3,10.1,21.3s4.2,4.8,2.5,9c0,0-1.8-2.9-4.7-2.9c-2.8,0-4.5,2.9-10.2,2.9
	c-12.7,0-18.7-10.6-18.7-10.6c11.4,7.5,19.2,2.2,19.2,2.2c-5.2-3-16.1-17.3-16.1-17.3c9.6,8.1,13.7,10.3,13.7,10.3
	c-2.5-2-9.4-12-9.4-12c5.5,5.6,16.5,13.4,16.5,13.4C212.6,60,206.4,52.3,206.4,52.3z"/>
<path class="st5" d="M256.8,68.6c0,5.1,4.5,6.9,4.6,6.9c0,0.1-0.7,2.4-2.4,4.8c-1.4,2.1-2.9,4.1-5.2,4.2c-2.3,0-3-1.4-5.6-1.4
	c-2.6,0-3.4,1.3-5.6,1.4c-2.2,0.1-3.9-2.2-5.4-4.3c-2.9-4.2-5.2-11.9-2.2-17.1c1.5-2.6,4.1-4.2,7-4.3c2.2,0,4.3,1.5,5.6,1.5
	c1.3,0,3.9-1.8,6.5-1.6c1.1,0,4.2,0.4,6.2,3.4C260.3,62.2,256.7,64.3,256.8,68.6 M252.5,55.9c1.2-1.4,2-3.4,1.8-5.4
	c-1.7,0.1-3.8,1.1-5,2.6c-1.1,1.3-2.1,3.3-1.8,5.3C249.4,58.5,251.3,57.4,252.5,55.9"/>
<g>
	<path class="st6" d="M337.3,50.5c-1.4,0-2.7,0.1-3.9,0.3c-3.4,0.6-4.1,1.9-4.1,4.2v3.1h8.1v1h-11.2c-2.4,0-4.4,1.4-5.1,4.1
		c-0.7,3.1-0.8,5,0,8.2c0.6,2.4,2,4.1,4.3,4.1h2.8v-3.7c0-2.7,2.3-5,5.1-5h8.1c2.3,0,4.1-1.9,4.1-4.1V55c0-2.2-1.9-3.8-4.1-4.2
		C340.1,50.6,338.7,50.5,337.3,50.5z M332.9,53c0.8,0,1.5,0.7,1.5,1.6c0,0.9-0.7,1.5-1.5,1.5c-0.8,0-1.5-0.7-1.5-1.5
		C331.4,53.7,332.1,53,332.9,53z"/>
	<path class="st7" d="M346.6,59.2v3.6c0,2.8-2.4,5.1-5.1,5.1h-8.1c-2.2,0-4.1,1.9-4.1,4.1v7.7c0,2.2,1.9,3.5,4.1,4.1
		c2.6,0.8,5,0.9,8.1,0c2-0.6,4.1-1.8,4.1-4.1v-3.1h-8.1v-1h12.2c2.4,0,3.2-1.6,4.1-4.1c0.8-2.5,0.8-5,0-8.2
		c-0.6-2.3-1.7-4.1-4.1-4.1L346.6,59.2L346.6,59.2z M342,78.7c0.8,0,1.5,0.7,1.5,1.5c0,0.9-0.7,1.6-1.5,1.6c-0.8,0-1.5-0.7-1.5-1.6
		C340.5,79.4,341.2,78.7,342,78.7z"/>
</g>
<path class="st8" d="M149.8,80.5c7.5,1,14.9,2,22.5,3.1c-2.6-4.3-5.1-8.4-7.6-12.6L149.8,80.5z M174.4,56.8c-0.7,1-1.3,2-2,3
	c-2.3,3.4-4.6,6.8-6.8,10.3c-0.1,0.2-0.3,0.3-0.1,0.6c2.2,3.6,4.4,7.3,6.6,10.9c0.3,0.6,0.7,1.1,1.1,1.7
	C173.6,74.5,174.1,65.6,174.4,56.8C174.5,56.8,174.4,56.8,174.4,56.8z M144.4,68.1c0.1,0.1,0.4,0.2,0.5,0.1c2.1-1,4.2-2,6.3-3.2
	c0.7-0.4,1.2-1,1.8-1.6c1.9-1.8,3.8-3.5,5.7-5.3c0.1-0.1,0.3-0.2,0.3-0.3c0.7-1.3,1.4-2.7,2.1-4.1c-0.8-0.3-1.6-0.6-2.4-0.9
	c-0.1,0-0.3,0-0.4,0.1c-1.9,1-3.7,2-5.5,3.1c-0.9,0.6-1.6,1.4-2.4,2.1c-1.3,1.2-2.6,2.3-3.8,3.5c-0.3,0.3-0.6,0.7-0.9,1.1
	c-0.9,1.3-1.7,2.5-2.6,3.8C143.5,67.2,143.9,67.7,144.4,68.1z M152.1,66.4c-1,4.4-2.1,8.8-3.2,13.4c5-3.3,10-6.4,14.9-9.6
	C159.9,68.9,156,67.7,152.1,66.4z M173.1,56.8c-4.3,0.7-8.4,1.4-12.6,2.1c1.4,3.5,2.8,6.9,4.3,10.4
	C167.6,65.2,170.3,61.1,173.1,56.8z M152.3,65.5c3.8,1.2,7.6,2.5,11.5,3.7c-1.4-3.5-2.8-6.9-4.2-10.3
	C157.1,61.1,154.7,63.3,152.3,65.5z M144.6,70.7c-1.4,3.3-2.7,6.4-4,9.6c2.6-0.1,5.1-0.1,7.7-0.2C147,76.9,145.8,73.9,144.6,70.7z
	 M148.3,77.8L148.3,77.8c1-3.8,1.9-7.6,2.9-11.6c-2.1,1.1-4.1,2.1-6.1,3.2C146.1,72.1,147.2,75,148.3,77.8z M171.6,56.2
	c-1.2-0.3-2.4-0.6-3.7-1c-1.8-0.5-3.5-0.9-5.3-1.4c-0.2-0.1-0.4-0.1-0.5,0.2c-0.6,1.3-1.3,2.5-1.9,3.8c0,0,0,0.1,0,0.2
	C164,57.4,167.8,56.9,171.6,56.2C171.6,56.3,171.6,56.2,171.6,56.2z M164.5,53.3l10,2.8c-0.6-1.6-1.1-3.1-1.6-4.7L164.5,53.3
	C164.5,53.2,164.5,53.3,164.5,53.3z M149.1,81.2c-1.2-0.1-2.5,0-3.8,0c-1,0-2.1,0.1-3.1,0.1c-0.1,0-0.2,0-0.3,0.1
	c8.5,0.8,17,1.6,25.5,2.4l0-0.1c-2.7-0.4-5.4-0.7-8.2-1.1C155.9,82.1,152.5,81.6,149.1,81.2z M140.7,77.4c1.1-2.5,2.2-5.1,3.3-7.6
	c0.1-0.3,0.1-0.4-0.1-0.6c-0.5-0.4-0.9-0.9-1.4-1.4c-0.7,3.4-1.3,6.6-2,9.9l0.1,0C140.6,77.5,140.7,77.5,140.7,77.4z M162.3,52.7
	c1.8-0.5,3.7-0.8,5.6-1.3c0.1,0,0.2-0.1,0.4-0.1l0-0.1c-2.6,0.4-5.2,0.7-8,1.1C161,52.6,161.6,52.9,162.3,52.7z"/>
<g>
	<path d="M365.5,56V79c0,1.4,1.1,2.5,2.5,2.5h29c1.4,0,2.5-1.1,2.5-2.5V56c0-1.4-1.1-2.5-2.5-2.5h-29
		C366.6,53.5,365.5,54.7,365.5,56z"/>
	<polygon class="st9" points="375.2,62.6 369.8,64.8 369.8,63 373.5,61.6 369.8,60.2 369.8,58.4 375.2,60.6 	"/>
	<rect x="375.5" y="66.5" class="st9" width="7" height="1.4"/>
</g>
<path class="st10" d="M280.2,61.5c-1.2,0-2.1,0.9-2.1,2.1l0,8.8c0,1.2,0.9,2.1,2.1,2.1c1.2,0,2.1-0.9,2.1-2.1v-8.8
	C282.3,62.4,281.4,61.5,280.2,61.5 M297.1,53.6l1.5-2.7c0.1-0.1,0-0.3-0.1-0.4c-0.1-0.1-0.3,0-0.4,0.1l-1.5,2.7
	c-1.2-0.6-2.6-0.9-4.1-0.9c-1.5,0-2.9,0.3-4.1,0.9l-1.5-2.7c-0.1-0.1-0.3-0.2-0.4-0.1c-0.1,0.1-0.2,0.3-0.1,0.4l1.5,2.7
	c-2.9,1.5-4.8,4.3-4.8,7.6l18.9,0C301.9,57.9,300,55.1,297.1,53.6 M288.2,57.7c-0.4,0-0.8-0.4-0.8-0.8c0-0.4,0.4-0.8,0.8-0.8
	c0.4,0,0.8,0.4,0.8,0.8C289,57.4,288.6,57.7,288.2,57.7 M296.8,57.7c-0.4,0-0.8-0.4-0.8-0.8c0-0.4,0.4-0.8,0.8-0.8
	c0.4,0,0.8,0.4,0.8,0.8C297.6,57.4,297.2,57.7,296.8,57.7 M283.1,61.9l0,13.6c0,1.2,1,2.2,2.2,2.2l1.5,0l0,4.6
	c0,1.2,0.9,2.1,2.1,2.1c1.2,0,2.1-0.9,2.1-2.1l0-4.6l2.8,0l0,4.6c0,1.2,0.9,2.1,2.1,2.1c1.2,0,2.1-0.9,2.1-2.1l0-4.6l1.5,0
	c1.2,0,2.2-1,2.2-2.2l0-13.6L283.1,61.9L283.1,61.9z M306.9,63.6c0-1.2-0.9-2.1-2.1-2.1c-1.2,0-2.1,0.9-2.1,2.1l0,8.8
	c0,1.2,0.9,2.1,2.1,2.1c1.2,0,2.1-0.9,2.1-2.1L306.9,63.6z"/>
<g>
	<path class="st11" d="M442.2,59.1L442.2,59.1c-0.1-0.4-0.3-0.6-0.6-0.8l-13.3-7.6c-0.2-0.1-0.5-0.2-0.9-0.2s-0.6,0.1-0.9,0.2
		l-13.2,7.7c-0.5,0.3-0.8,1-0.8,1.5v15.3c0,0.3,0.1,0.6,0.2,0.9l-0.1,0c0.1,0.2,0.3,0.4,0.5,0.5l13.2,7.7c0.2,0.1,0.5,0.2,0.9,0.2
		s0.6-0.1,0.9-0.2l13.2-7.7c0.5-0.3,0.8-1,0.8-1.5V59.8C442.4,59.6,442.3,59.4,442.2,59.1z M427.5,78.3c-6,0-10.9-4.9-10.9-10.9
		c0-6,4.9-10.9,10.9-10.9c4,0,7.6,2.2,9.4,5.5l-3.6,2.1c-1.2-2.1-3.4-3.4-5.9-3.4c-3.7,0-6.7,3-6.7,6.7c0,3.7,3,6.7,6.7,6.7
		c2.5,0,4.7-1.4,5.9-3.4l3.5,2.1C435,76.1,431.5,78.3,427.5,78.3z M441.5,66.9h-0.9l-0.2,1.1h1.1v1.4h-1.4l-0.3,1.6h-1.3l0.3-1.6h-1
		l-0.3,1.6h-1.3l0.3-1.6h-0.7V68h1l0.2-1.1h-1.2v-1.4h1.5l0.3-1.6h1.3l-0.3,1.6h1l0.3-1.6h1.3l-0.3,1.6h0.6V66.9z M438,68h1l0.2-1.1
		h-1L438,68z"/>
</g>
</svg>
