<svg version="1.1" id="Layer_1" xmlns="http://www.w3.org/2000/svg" xmlns:xlink="http://www.w3.org/1999/xlink" x="0px" y="0px"
	 viewBox="0 0 48 48" style="enable-background:new 0 0 48 48;" xml:space="preserve">
<style type="text/css">
	.st0{fill:#CCCCCC;}
</style>
<path class="st0" d="M48,24c0,13.3-10.7,24-24,24S0,37.3,0,24S10.7,0,24,0S48,10.7,48,24z M24.1,31.4c-1.9,0-3.3,1.3-3.3,3.3
	c0,2,1.3,3.3,3.3,3.3c1.9,0,3.3-1.3,3.3-3.3C27.4,32.8,26,31.4,24.1,31.4z M23.6,15.4c1.8,0,2.8,0.8,2.8,2.6c0,3.9-4.8,4.2-4.8,10.3
	h5.1c0-4.7,6-5.4,6-11.4c0-4.4-3.2-6.9-8.5-6.9c-5.6,0-8.9,3.3-9,8.9l5.2,0C20.6,16.5,21.7,15.4,23.6,15.4z"/>
</svg>
