<svg version="1.1" id="Layer_1" xmlns="http://www.w3.org/2000/svg" xmlns:xlink="http://www.w3.org/1999/xlink" x="0px" y="0px"
	 viewBox="0 0 128 128" style="enable-background:new 0 0 128 128;" xml:space="preserve">
<style type="text/css">
	.st0{fill:#5A9FD4;}
	.st1{fill:#FFD43B;}
</style>
<g>
	<path class="st0" d="M63.3,2.2c-5,0-9.9,0.5-14.1,1.2c-12.5,2.2-14.7,6.8-14.7,15.3V30h29.5v3.7H23.4c-8.6,0-16.1,5.1-18.4,14.9
		c-2.7,11.2-2.8,18.2,0,30c2.1,8.7,7.1,14.9,15.7,14.9h10.1V80.1c0-9.7,8.4-18.3,18.4-18.3h29.4c8.2,0,14.7-6.8,14.7-15V18.7
		c0-8-6.7-14-14.7-15.3C73.6,2.6,68.3,2.2,63.3,2.2z M47.3,11.2c3,0,5.5,2.5,5.5,5.6c0,3.1-2.5,5.6-5.5,5.6c-3.1,0-5.5-2.5-5.5-5.6
		C41.8,13.8,44.3,11.2,47.3,11.2z"/>
	<path class="st1" d="M97,33.7v13.1c0,10.1-8.6,18.7-18.4,18.7H49.2c-8.1,0-14.7,6.9-14.7,15v28.1c0,8,6.9,12.7,14.7,15
		c9.3,2.7,18.3,3.2,29.4,0c7.4-2.2,14.7-6.5,14.7-15V97.3H63.9v-3.7h44.2c8.6,0,11.8-6,14.7-14.9c3.1-9.2,2.9-18.1,0-30
		c-2.1-8.5-6.2-14.9-14.7-14.9L97,33.7L97,33.7z M80.5,104.8c3.1,0,5.5,2.5,5.5,5.6c0,3.1-2.5,5.6-5.5,5.6c-3,0-5.5-2.5-5.5-5.6
		C75,107.3,77.4,104.8,80.5,104.8z"/>
</g>
</svg>
