<?xml version="1.0" encoding="UTF-8" standalone="no"?>
<svg width="256px" height="256px" viewBox="0 0 256 256" version="1.1" xmlns="http://www.w3.org/2000/svg" xmlns:xlink="http://www.w3.org/1999/xlink" xmlns:sketch="http://www.bohemiancoding.com/sketch/ns">
    <!-- Generator: Sketch 3.5.1 (25234) - http://www.bohemiancoding.com/sketch -->
    <title>go</title>
    <desc>Created with Sketch.</desc>
    <defs></defs>
    <g id="Page-1" stroke="none" stroke-width="1" fill="none" fill-rule="evenodd" sketch:type="MSPage">
        <g id="go" sketch:type="MSLayerGroup">
            <path d="M256,256 L256,0 L0,0 L0,256 L256,256 Z" id="back" fill="#6AD8E6" sketch:type="MSShapeGroup"></path>
            <g id="gopher" transform="translate(30.000000, 45.000000)" sketch:type="MSShapeGroup">
                <g id="Group">
                    <path d="M19.0730716,130.37176 C13.0483372,131.218016 6.03193995,132.967367 2.38053118,135.191272 C-0.923660508,137.204514 -0.489976905,143.130564 1.86083141,146.062239 C4.34178984,149.157661 7.25327945,148.992108 10.7682333,147.372673 C13.075358,146.309439 15.8539954,143.940282 18.7245035,141.286483 C18.7965589,138.974164 18.8771709,136.660041 18.9690416,134.350879 C19.0235335,132.979998 19.0573095,131.65558 19.0730716,130.37176 L19.0730716,130.37176 Z" id="Shape" stroke="#FFFFFF" stroke-width="6"></path>
                    <path d="M192.170473,133.161339 C188.792875,131.10434 182.538014,129.454681 176.850589,128.548429 C176.992898,131.623101 177.188799,135.003616 177.453603,138.816732 C177.501339,139.505556 177.548626,140.184906 177.594561,140.859746 C179.827829,142.835096 181.953915,144.49919 183.782321,145.342289 C187.298176,146.962176 190.208764,147.127728 192.689723,144.032306 C195.040982,141.100632 195.475115,135.173679 192.170473,133.161339 L192.170473,133.161339 Z" id="Shape" stroke="#FFFFFF" stroke-width="6"></path>
                    <path d="M0.922309469,144.529414 C2.42331409,143.448136 3.48387991,142.277993 6.22919169,140.876888" id="Shape" stroke="#FFFFFF" stroke-width="6"></path>
                    <path d="M193.628695,142.499481 C192.127691,141.418203 191.067125,140.24806 188.322263,138.846955" id="Shape" stroke="#FFFFFF" stroke-width="6"></path>
                    <path d="M17.1451386,32.6940983 C17.1451386,29.550409 19.6855427,27.0021666 22.8195035,27.0021666 C24.6573672,27.0021666 26.2858199,27.8822553 27.3229677,29.2414081 C29.8309469,25.1314707 32.8545727,21.5863058 36.2907159,18.5373467 C34.5884065,16.8872368 31.8223788,15.6819078 27.4805889,15.0977383 C13.4973326,13.2148628 6.35168591,20.1346783 4.71918014,29.4087648 C3.14386836,38.3576109 7.94861432,47.9682152 18.6817206,50.466837 C19.7895727,46.0979704 21.1469169,42.0904319 22.712321,38.3806168 C19.6283487,38.3224254 17.1451386,35.8012488 17.1451386,32.6940983 L17.1451386,32.6940983 Z" id="Shape" stroke="#FFFFFF" stroke-width="6"></path>
                    <path d="M22.8195035,27.0021666 C19.6855427,27.0021666 17.1451386,29.550409 17.1451386,32.6940983 C17.1451386,35.8012488 19.6283487,38.3224254 22.712321,38.3801657 C23.8287298,35.7340355 25.0500693,33.2381203 26.3655312,30.8748274 C26.6749192,30.319528 26.9960162,29.7768593 27.3229677,29.240957 C26.2858199,27.8822553 24.6569169,27.0021666 22.8195035,27.0021666 L22.8195035,27.0021666 Z" id="Shape" fill="#FFFFFF"></path>
                    <path d="M185.082921,25.7548857 C183.450416,16.4803481 176.304769,9.56098367 162.321963,11.4438592 C157.473984,12.0965953 154.591316,13.5234126 152.959711,15.4789145 C156.05224,18.1539149 158.929954,21.2281354 161.638788,24.7345061 C161.770289,24.9045694 161.895485,25.076437 162.024734,25.2469514 C163.05873,23.8508087 164.71015,22.9423009 166.576836,22.9423009 C169.710797,22.9423009 172.251201,25.4905433 172.251201,28.6342326 C172.251201,31.3899792 170.298949,33.6874121 167.705855,34.2124881 C169.631986,37.9489178 171.193788,41.9708914 172.443949,46.4561408 C182.244838,43.5010096 186.592032,34.3261643 185.082921,25.7548857 L185.082921,25.7548857 Z" id="Shape" stroke="#FFFFFF" stroke-width="6"></path>
                    <path d="M172.251201,28.6342326 C172.251201,25.4905433 169.710797,22.9423009 166.576836,22.9423009 C164.7097,22.9423009 163.05873,23.8508087 162.024734,25.2469514 C164.193152,28.1091567 166.081005,31.0597768 167.705855,34.2124881 C170.298949,33.6874121 172.251201,31.3899792 172.251201,28.6342326 L172.251201,28.6342326 Z" id="Shape" fill="#FFFFFF"></path>
                    <path d="M161.638788,24.7345061 C158.929503,21.2281354 156.05224,18.1539149 152.959711,15.4789145 C139.540739,3.87311186 122.074053,-0.214721785 96.788903,0.537255558 C74.8651386,1.18999174 51.5412471,5.00581438 36.2907159,18.5373467 C32.8545727,21.5858547 29.8313972,25.1310196 27.3229677,29.2414081 C26.9960162,29.7773104 26.6749192,30.3199791 26.3655312,30.8752785 C25.0500693,33.2385714 23.8287298,35.7340355 22.712321,38.3806168 C21.1469169,42.0904319 19.7895727,46.0979704 18.6817206,50.466837 C16.5349192,58.9339124 15.3207852,68.7511187 15.3212356,80.355117 C15.3221363,100.714441 19.3140069,110.81674 19.0735219,130.372211 C19.0577598,131.656031 19.0239838,132.980449 18.9694919,134.351331 C18.8776212,136.660492 18.7249451,143.600447 18.7249538,141.286934 C18.7249539,141.27607 18.7249539,143.627884 18.7249539,143.627884 L54.0169704,167.615855 L128.257013,167.615855 C128.257013,167.615855 176.63577,150.03547 176.63577,143.627884 C176.63577,142.951262 177.50224,139.506909 177.454503,138.818085 C177.1897,135.004969 176.994249,131.624454 176.85149,128.549782 C176.071039,111.704498 176.880312,104.047591 176.635774,84.8218714 C176.427263,68.4601616 175.196917,56.3301852 172.44485,46.4574941 C171.194688,41.9726958 169.632887,37.9507222 167.706755,34.2138414 C166.081005,31.0597768 164.193603,28.1087056 162.024734,25.2469514 C161.895485,25.076437 161.770289,24.9045694 161.638788,24.7345061 Z" id="Shape" stroke="#FFFFFF" stroke-width="6"></path>
                    <ellipse id="Oval" stroke="#FFFFFF" stroke-width="6" cx="63.5533372" cy="40.4159628" rx="24.7240185" ry="23.9532075"></ellipse>
                    <ellipse id="Oval" fill="#FFFFFF" cx="50.5833603" cy="41.6334714" rx="8.51154734" ry="8.52571792"></ellipse>
                    <path d="M50.1898734,46.9411765 C52.9163424,46.9411765 55.1265823,44.7289364 55.1265823,42 C55.1265823,39.2710636 52.9163424,37.0588235 50.1898734,37.0588235 C47.4634044,37.0588235 45.2531646,39.2710636 45.2531646,42 C45.2531646,44.7289364 47.4634044,46.9411765 50.1898734,46.9411765 Z" id="Oval" fill="#6ED7E8"></path>
                    <ellipse id="Oval" stroke="#FFFFFF" stroke-width="6" cx="125.566039" cy="37.5736058" rx="24.7240185" ry="23.9532075"></ellipse>
                    <ellipse id="Oval" fill="#FFFFFF" cx="112.596062" cy="38.7920166" rx="8.51154734" ry="8.52571792"></ellipse>
                    <path d="M112.08736,44.4788237 C115.041065,44.4788237 117.435515,42.0803867 117.435515,39.1217648 C117.435515,36.1631429 115.041065,33.7647059 112.08736,33.7647059 C109.133656,33.7647059 106.739205,36.1631429 106.739205,39.1217648 C106.739205,42.0803867 109.133656,44.4788237 112.08736,44.4788237 Z" id="Oval" fill="#6ED7E8"></path>
                    <path d="M95.45903,75.9388853 C90.6024942,76.0236914 89.8742841,78.1939152 85.6932679,78.9418326 C85.5455543,81.5252605 85.3577598,85.0614035 85.169515,89.2701309 C84.7642032,98.3371643 96.248037,96.3072314 96.248037,90.8940772 L96.248037,75.9483583 C95.995843,75.9388853 95.7359931,75.9343744 95.45903,75.9388853 L95.45903,75.9388853 Z" id="Shape" stroke="#FFFFFF" stroke-width="6"></path>
                    <path d="M96.248037,90.8936261 C96.248037,96.3067803 107.731871,98.3367132 107.326559,89.2696798 C107.13336,84.9472762 106.940612,81.3348979 106.791097,78.7352306 C101.526998,78.4947963 100.884804,76.1130085 96.248037,75.9479072 L96.248037,90.8936261 L96.248037,90.8936261 Z" id="Shape" stroke="#FFFFFF" stroke-width="6"></path>
                    <path d="M113.340485,66.8962112 C111.379677,64.7828255 109.052737,63.631177 105.943545,63.0749754 C104.293476,65.4955575 100.183164,67.2110763 95.3698614,67.2110763 C90.7412009,67.2110763 86.7628406,65.6241199 84.996582,63.349693 C81.6680716,63.9888962 79.2533141,65.2375305 77.2731409,67.5268436 C73.3880023,72.0193106 75.2749538,78.7550788 80.4958199,79.1177602 C82.7281871,79.2729372 84.3796074,79.1768538 85.6932679,78.9413815 C89.8742841,78.1934641 90.6024942,76.0232403 95.45903,75.9384342 C95.7359931,75.9339233 95.995843,75.9384342 96.248037,75.9474562 C100.884353,76.1125574 101.526547,78.4943452 106.791097,78.7347795 C107.832298,78.7821446 109.053637,78.746508 110.524018,78.5922331 C115.729573,78.04776 117.380543,71.2501916 113.340485,66.8962112 L113.340485,66.8962112 Z" id="Shape" stroke="#FFFFFF" stroke-width="6"></path>
                    <path d="M95.3703118,67.2110763 C100.183614,67.2110763 104.293476,65.4955575 105.943995,63.0749754 C106.442529,62.3432974 106.719492,61.5480148 106.719492,60.7152912 C106.719492,57.1277233 101.639134,54.2195061 95.3707621,54.2195061 C89.103291,54.2195061 84.0220323,57.1277233 84.0220323,60.7152912 C84.0220323,61.6535713 84.3724018,62.5440352 84.9974827,63.349693 C86.7628406,65.6241199 90.7416513,67.2110763 95.3703118,67.2110763 L95.3703118,67.2110763 Z" id="Shape" fill="#FFFFFF"></path>
                </g>
            </g>
            <path d="M43.4128408,194.745728 C44.1231893,194.072706 55.7131042,186.845432 55.5214005,178.455443 C55.4891102,177.042246 196.778508,174.020548 196.986922,174.727519 C197.195336,175.434491 201.040015,177.117651 202.485022,178.455443 C203.104743,179.029184 203.539612,186.504574 211.136749,192.908089 C218.733887,199.311604 221.832005,212.183751 219.550522,215.808813 C215.555832,222.156 32,217 32,217 C32,217 42.5877057,195.527505 43.4128408,194.745728 Z" id="Rectangle-4" fill="#6AD8E6" sketch:type="MSShapeGroup"></path>
        </g>
    </g>
</svg>