<?xml version="1.0" encoding="UTF-8" standalone="no"?>
<svg width="256px" height="256px" viewBox="0 0 256 256" version="1.1" xmlns="http://www.w3.org/2000/svg" xmlns:xlink="http://www.w3.org/1999/xlink" xmlns:sketch="http://www.bohemiancoding.com/sketch/ns">
    <!-- Generator: Sketch 3.5.1 (25234) - http://www.bohemiancoding.com/sketch -->
    <title>java</title>
    <desc>Created with Sketch.</desc>
    <defs></defs>
    <g id="Page-1" stroke="none" stroke-width="1" fill="none" fill-rule="evenodd" sketch:type="MSPage">
        <g id="java" sketch:type="MSLayerGroup">
            <path d="M0,256 L256,256 L256,0 L0,0 L0,256" id="back" fill="#F98633" sketch:type="MSShapeGroup"></path>
            <g id="Group" transform="translate(49.000000, 19.000000)" fill="#FFFFFF" sketch:type="MSShapeGroup">
                <path d="M51.0797368,166.860481 C51.0797368,166.860481 42.9510526,171.596923 56.8592105,173.203558 C73.7194737,175.144038 82.3263158,174.851923 100.912105,171.325673 C100.912105,171.325673 105.797632,174.392885 112.616579,177.063654 C70.9752632,194.987019 18.3778947,176.020385 51.0797368,166.860481" id="Shape"></path>
                <path d="M45.9863158,143.49125 C45.9863158,143.49125 36.8597368,150.2725 50.7886842,151.712212 C68.7923684,153.569231 83.0123684,153.736154 107.627105,148.978846 C107.627105,148.978846 111.036579,152.4425 116.379474,154.34125 C66.0481579,169.093077 9.95815789,155.488846 45.9863158,143.49125" id="Shape"></path>
                <path d="M88.8957895,103.826154 C99.1657895,115.677692 86.1931579,126.360769 86.1931579,126.360769 C86.1931579,126.360769 112.242368,112.860865 100.288421,95.9599038 C89.1036842,80.2065385 80.5384211,72.3611538 126.940526,45.3613462 C126.940526,45.3613462 54.115,63.6185577 88.8957895,103.826154" id="Shape"></path>
                <path d="M143.967105,184.137019 C143.967105,184.137019 149.975263,189.123846 137.335263,192.963077 C113.302632,200.265962 37.2963158,202.477692 16.195,193.255192 C8.60684211,189.937596 22.8476316,185.347212 27.3173684,184.387404 C31.995,183.365 34.6560526,183.552788 34.6560526,183.552788 C26.2155263,177.585288 -19.8955263,195.279135 11.2263158,200.328558 C96.1305263,214.162308 165.983158,194.110673 143.967105,184.137019" id="Shape"></path>
                <path d="M54.9881579,119.266538 C54.9881579,119.266538 16.3197368,128.489038 41.3086842,131.8275 C51.8489474,133.246346 72.8671053,132.9125 92.4507895,131.285 C108.458684,129.92875 124.508158,127.049327 124.508158,127.049327 C124.508158,127.049327 118.874211,129.469712 114.778684,132.265673 C75.5281579,142.635769 -0.311842105,137.815865 21.5171053,127.21625 C39.9781579,118.244135 54.9881579,119.266538 54.9881579,119.266538" id="Shape"></path>
                <path d="M124.341842,158.180481 C164.257632,137.356827 145.796579,117.367788 132.927895,120.059423 C129.767895,120.727115 128.354211,121.290481 128.354211,121.290481 C128.354211,121.290481 129.518421,119.454327 131.763684,118.640577 C157.251579,109.647596 176.835263,145.160481 123.531053,159.22375 C123.531053,159.22375 124.154737,158.660385 124.341842,158.180481" id="Shape"></path>
                <path d="M100.288421,1.75269231 C100.288421,1.75269231 122.387632,23.9325962 79.3326316,58.0683654 C44.8013158,85.44375 71.4534211,101.051058 79.3118421,118.870096 C59.1460526,100.612885 44.3647368,84.5465385 54.2813158,69.5860577 C68.8547368,47.6565385 109.207105,36.9943269 100.288421,1.75269231" id="Shape"></path>
                <path d="M58.9173684,214.579615 C97.2323684,217.041731 156.045789,213.223365 157.438684,195.02875 C157.438684,195.02875 154.756842,201.935192 125.776316,207.401923 C93.0744737,213.578077 52.7636842,212.847788 28.835,208.904231 C28.835,208.883365 33.7413158,212.952115 58.9173684,214.579615" id="Shape"></path>
            </g>
        </g>
    </g>
</svg>