<?xml version="1.0" encoding="UTF-8" standalone="no"?>
<svg width="256px" height="256px" viewBox="0 0 256 256" version="1.1" xmlns="http://www.w3.org/2000/svg" xmlns:xlink="http://www.w3.org/1999/xlink" xmlns:sketch="http://www.bohemiancoding.com/sketch/ns">
    <!-- Generator: Sketch 3.5.1 (25234) - http://www.bohemiancoding.com/sketch -->
    <title>nodejs</title>
    <desc>Created with Sketch.</desc>
    <defs></defs>
    <g id="Page-1" stroke="none" stroke-width="1" fill="none" fill-rule="evenodd" sketch:type="MSPage">
        <g id="nodejs" sketch:type="MSLayerGroup">
            <g id="Group" sketch:type="MSShapeGroup">
                <rect id="back" fill="#8CC84B" x="0" y="0" width="256" height="256"></rect>
                <path d="M118.808983,21.4648243 C124.189568,18.3848708 131.198796,18.370871 136.574715,21.4648243 C163.622307,36.747927 190.679232,52.0076967 217.722157,67.3001326 C222.808747,70.1654226 226.210696,75.8260039 226.159363,81.6872487 L226.159363,173.637861 C226.196695,179.741769 222.458752,185.537681 217.092167,188.337639 C190.13324,203.536743 163.188313,218.754513 136.234054,233.953618 C130.74147,237.094237 123.592244,236.851573 118.272324,233.454292 C110.18978,228.769029 102.093235,224.107099 94.0106908,219.426503 C92.3587158,218.441852 90.4967438,217.657863 89.3300948,216.057221 C90.3614125,214.666575 92.2047181,214.493911 93.7026955,213.887253 C97.0766445,212.813936 100.175264,211.091963 103.273884,209.421321 C104.057872,208.884663 105.014525,209.089993 105.765847,209.570652 C112.677076,213.532592 119.527639,217.611198 126.462201,221.535804 C127.941512,222.389792 129.439489,221.255809 130.704137,220.551153 C157.159071,205.599378 183.646671,190.703604 210.096939,175.747162 C211.076924,175.275836 211.618249,174.235185 211.538917,173.161868 C211.557583,142.828993 211.543584,112.491451 211.54825,82.1585749 C211.660248,80.9405934 210.955592,79.8206103 209.854275,79.3212844 C182.988681,64.1921795 156.137086,49.0397415 129.276158,33.9059699 C128.31484,33.2526464 127.073525,33.2479798 126.112207,33.9013033 C99.2512784,49.0397415 72.4043503,64.2061792 45.5434223,79.3352842 C44.4467722,79.8346101 43.70945,80.9359267 43.8401147,82.1585749 C43.8447813,112.491451 43.8401147,142.828993 43.8401147,173.166534 C43.7467828,174.239852 44.3254407,175.25717 45.3007593,175.719163 C52.4686511,179.783768 59.6458761,183.820374 66.8184345,187.870979 C70.8597069,190.045613 75.8202987,191.338261 80.2722315,189.672286 C84.2015055,188.262974 86.9547973,184.254368 86.8801318,180.08243 C86.9174646,149.926886 86.8614654,119.766674 86.9081313,89.6157957 C86.8101328,88.2764826 88.079447,87.1704993 89.3814274,87.2964974 C92.8253753,87.2731644 96.27399,87.2498314 99.717938,87.3058306 C101.15525,87.2731644 102.144568,88.7151427 101.967237,90.0637889 C101.953238,120.410665 102.00457,150.75754 101.943904,181.104415 C101.953238,189.191626 98.630621,197.992827 91.1500673,201.9501 C81.9335398,206.724028 70.5423784,205.711377 61.4378491,201.133446 C53.5559681,197.199505 46.0334149,192.556242 38.2915318,188.342305 C32.9109463,185.556348 29.1916691,179.737102 29.2290019,173.637861 L29.2290019,81.6872487 C29.1730027,75.7046723 32.7102827,69.941426 37.9555368,67.1181353 C64.9097967,51.9050316 91.8593899,36.6825947 118.808983,21.4648243 L118.808983,21.4648243 L118.808983,21.4648243 Z" id="Shape" fill="#FFFFFF"></path>
                <path d="M141.427906,85.9686852 C153.183062,85.2126966 165.768872,85.5206919 176.348046,91.3119378 C184.537923,95.7498708 189.078521,105.064397 189.223185,114.16426 C188.994521,115.391574 187.711208,116.068231 186.539892,115.984232 C183.12861,115.979565 179.717329,116.030898 176.306047,115.960899 C174.859402,116.016898 174.019414,114.682252 173.837417,113.403604 C172.857432,109.04967 170.482134,104.737736 166.384863,102.637767 C160.094291,99.4878146 152.800401,99.6464789 145.940505,99.711811 C140.933247,99.977807 135.547995,100.4118 131.306059,103.356423 C128.048775,105.587055 127.059456,110.090321 128.221439,113.716266 C129.318089,116.320227 132.323377,117.160214 134.782673,117.93487 C148.950459,121.640147 163.962899,121.271486 177.860023,126.148079 C183.613936,128.136049 189.241851,131.99999 191.211155,138.024566 C193.787116,146.097777 192.6578,155.748299 186.91322,162.230201 C182.255957,167.56412 175.470726,170.466743 168.704161,172.044053 C159.702297,174.050689 150.359771,174.102021 141.21791,173.210702 C132.622039,172.230716 123.676175,169.972084 117.040274,164.115505 C111.365694,159.18758 108.593735,151.511029 108.869065,144.100474 C108.934397,142.849826 110.180378,141.977173 111.379693,142.079838 C114.814308,142.051838 118.248923,142.042506 121.683538,142.084505 C123.055517,141.986506 124.072835,143.171822 124.142834,144.464469 C124.777491,148.613073 126.336134,152.967008 129.952746,155.426303 C136.933974,159.929569 145.693175,159.621574 153.687055,159.747572 C160.308955,159.453576 167.742842,159.36491 173.146761,154.987643 C175.998051,152.491014 176.842705,148.314411 176.072717,144.721131 C175.237396,141.687844 172.064111,140.273865 169.338818,139.349879 C155.35303,134.925946 140.172592,136.531255 126.322134,131.528664 C120.698886,129.540694 115.262301,125.784084 113.101667,120.006838 C110.087046,111.830961 111.468359,101.718447 117.814929,95.4558752 C124.002836,89.2259693 132.934702,86.8273389 141.427906,85.9686852 L141.427906,85.9686852 L141.427906,85.9686852 Z" id="Shape" fill="#FFFFFF"></path>
            </g>
        </g>
    </g>
</svg>