<?xml version="1.0" encoding="UTF-8" standalone="no"?>
<svg width="256px" height="256px" viewBox="0 0 256 256" version="1.1" xmlns="http://www.w3.org/2000/svg" xmlns:xlink="http://www.w3.org/1999/xlink" xmlns:sketch="http://www.bohemiancoding.com/sketch/ns">
    <!-- Generator: Sketch 3.5.1 (25234) - http://www.bohemiancoding.com/sketch -->
    <title>python</title>
    <desc>Created with Sketch.</desc>
    <defs></defs>
    <g id="Page-1" stroke="none" stroke-width="1" fill="none" fill-rule="evenodd" sketch:type="MSPage">
        <g id="python" sketch:type="MSLayerGroup">
            <path d="M0,256 L256,256 L256,0 L0,0 L0,256" id="back" fill="#6193BD" sketch:type="MSShapeGroup"></path>
            <g id="Group" transform="translate(29.875000, 29.373397)" fill="#FFFFFF" sketch:type="MSShapeGroup">
                <path d="M70.7288953,14.6387436 C75.5751004,14.6387436 79.5335021,18.6605598 79.5335021,23.6060588 C79.5335021,28.5348697 75.574266,32.5208066 70.7288953,32.5208066 C65.8643333,32.5208066 61.9242885,28.5357041 61.9242885,23.6060588 C61.9234541,18.6605598 65.8643333,14.6387436 70.7288953,14.6387436 L70.7288953,14.6387436 Z M96.1022169,0.256161325 C88.0802788,0.293709402 80.4213056,0.977918803 73.6818429,2.17111325 C53.8264199,5.67810363 50.2226389,13.0208387 50.2226389,26.5598408 L50.2226389,44.4419038 L97.141047,44.4419038 L97.141047,50.4045385 L50.2226389,50.4045385 L32.6134252,50.4045385 C18.9776325,50.4045385 7.03901282,58.6000321 3.30339637,74.1924968 C-1.00545406,92.0637126 -1.19653205,103.215491 3.30339637,121.875217 C6.6376656,135.767171 14.6028643,145.662341 28.2386571,145.662341 L44.3701453,145.662341 L44.3701453,124.225726 C44.3701453,108.7409 57.7706368,95.0792404 73.6818429,95.0792404 L120.545181,95.0792404 C133.591886,95.0792404 144.006888,84.3388216 144.006888,71.2370459 L144.006888,26.5590064 C144.006888,13.846062 133.278151,4.2938312 120.545181,2.17027885 C112.486529,0.828560897 104.121652,0.21944765 96.1022169,0.256161325 L96.1022169,0.256161325 Z" id="Shape"></path>
                <path d="M123.498963,163.543569 C128.36269,163.543569 132.302735,167.527838 132.302735,172.459152 C132.302735,177.403816 128.36269,181.426467 123.498963,181.426467 C118.652757,181.426467 114.694356,177.403816 114.694356,172.459152 C114.694356,167.527838 118.652757,163.543569 123.498963,163.543569 L123.498963,163.543569 Z M149.856878,50.4028697 L149.856878,71.2370459 C149.856878,87.3902286 136.161009,100.984301 120.545181,100.984301 L73.6818429,100.984301 C60.8454071,100.984301 50.2226389,111.970869 50.2226389,124.82733 L50.2226389,169.50537 C50.2226389,182.219149 61.2784615,189.700394 73.6818429,193.345895 C88.533359,197.713154 102.774927,198.504167 120.545181,193.345895 C132.356971,189.926517 144.006888,183.044372 144.006888,169.50537 L144.006888,151.622472 L97.141047,151.622472 L97.141047,145.659838 L144.006888,145.659838 L167.464423,145.659838 C181.101885,145.659838 186.182557,136.150161 190.924462,121.872714 C195.8224,107.176396 195.614634,93.0416314 190.924462,74.1899936 C187.553479,60.6151122 181.118573,50.4020353 167.464423,50.4020353 L149.856878,50.4020353 L149.856878,50.4028697 Z" id="Shape"></path>
            </g>
        </g>
    </g>
</svg>