<?xml version="1.0" encoding="UTF-8" standalone="no"?>
<svg width="256px" height="256px" viewBox="0 0 256 256" version="1.1" xmlns="http://www.w3.org/2000/svg" xmlns:xlink="http://www.w3.org/1999/xlink" xmlns:sketch="http://www.bohemiancoding.com/sketch/ns">
    <!-- Generator: Sketch 3.5.1 (25234) - http://www.bohemiancoding.com/sketch -->
    <title>ruby</title>
    <desc>Created with Sketch.</desc>
    <defs></defs>
    <g id="Page-1" stroke="none" stroke-width="1" fill="none" fill-rule="evenodd" sketch:type="MSPage">
        <g id="ruby" sketch:type="MSLayerGroup">
            <g id="Group" sketch:type="MSShapeGroup">
                <path d="M0,256 L256,256 L256,0 L0,0 L0,256" id="back" fill="#C7337E"></path>
                <path d="M41.5283663,102.634342 L119.418811,183.268751 L82.1650799,102.634342 L41.5283663,102.634342 L41.5283663,102.634342 Z M92.4353782,102.634342 L128.098155,182.427789 L163.760931,102.634342 L92.4353782,102.634342 L92.4353782,102.634342 Z M212.085729,102.634342 L174.03123,102.634342 L136.878388,183.268751 L212.085729,102.634342 L212.085729,102.634342 Z M96.8681792,93.3816796 L160.828778,93.3816796 L128.848831,60.5036183 L96.8681792,93.3816796 L96.8681792,93.3816796 Z M183.847876,57.6911534 L137.269248,57.6911534 L169.182875,90.5018544 L183.847876,57.6911534 L183.847876,57.6911534 Z M72.3484329,57.6911534 L87.4854289,91.5594801 L120.429825,57.6911534 L72.3484329,57.6911534 L72.3484329,57.6911534 Z M212.183797,93.3816796 L191.689765,63.1244188 L178.167005,93.3816796 L212.183797,93.3816796 L212.183797,93.3816796 Z M44.5028512,93.3816796 L78.0293041,93.3816796 L64.8085087,63.8001048 L44.5028512,93.3816796 L44.5028512,93.3816796 Z M63.0157747,52.4037195 L193.283541,52.4037195 L225.514654,99.9906247 L127.478,203.09628 L29.4413463,101.31283 L63.0157747,52.4037195 L63.0157747,52.4037195 Z" id="Shape" fill="#FFFFFF"></path>
                <path d="M41.5283663,102.634342 L119.418811,183.268751 L82.1650799,102.634342 L41.5283663,102.634342 L41.5283663,102.634342 Z M92.4353782,102.634342 L128.098155,182.427789 L163.760931,102.634342 L92.4353782,102.634342 L92.4353782,102.634342 Z M212.085729,102.634342 L174.03123,102.634342 L136.878388,183.268751 L212.085729,102.634342 L212.085729,102.634342 Z M96.8681792,93.3816796 L160.828778,93.3816796 L128.848831,60.5036183 L96.8681792,93.3816796 L96.8681792,93.3816796 Z M183.847876,57.6911534 L137.269248,57.6911534 L169.182875,90.5018544 L183.847876,57.6911534 L183.847876,57.6911534 Z M72.3484329,57.6911534 L87.4854289,91.5594801 L120.429825,57.6911534 L72.3484329,57.6911534 L72.3484329,57.6911534 Z M212.183797,93.3816796 L191.689765,63.1244188 L178.167005,93.3816796 L212.183797,93.3816796 L212.183797,93.3816796 Z M44.5028512,93.3816796 L78.0293041,93.3816796 L64.8085087,63.8001048 L44.5028512,93.3816796 L44.5028512,93.3816796 Z M63.0157747,52.4037195 L193.283541,52.4037195 L225.514654,99.9906247 L127.478,203.09628 L29.4413463,101.31283 L63.0157747,52.4037195 L63.0157747,52.4037195 Z" id="Shape" stroke="#FFFFFF" stroke-width="3"></path>
            </g>
        </g>
    </g>
</svg>