<?xml version="1.0" encoding="UTF-8" standalone="no"?>
<svg width="256px" height="256px" viewBox="0 0 256 256" version="1.1" xmlns="http://www.w3.org/2000/svg" xmlns:xlink="http://www.w3.org/1999/xlink" xmlns:sketch="http://www.bohemiancoding.com/sketch/ns">
    <!-- Generator: Sketch 3.5.1 (25234) - http://www.bohemiancoding.com/sketch -->
    <title>scala</title>
    <desc>Created with Sketch.</desc>
    <defs></defs>
    <g id="Page-1" stroke="none" stroke-width="1" fill="none" fill-rule="evenodd" sketch:type="MSPage">
        <g id="scala" sketch:type="MSLayerGroup">
            <g id="Layer_1" sketch:type="MSShapeGroup">
                <g id="Scala_Icon">
                    <rect id="back" fill="#CD3346" x="0" y="0" width="256" height="256"></rect>
                    <g id="logo" transform="translate(64.764706, 20.470588)" fill="#FFFFFF">
                        <g id="Group" transform="translate(0.000000, 33.320001)">
                            <path d="M0.980000028,49.7840014 C0.980000028,49.7840014 124.264004,62.1320018 124.264004,82.7120023 L124.264004,33.3200009 C124.264004,33.3200009 124.264004,12.7400004 0.980000028,0.392000011 L0.980000028,19.6000006 L0.980000028,49.7840014 L0.980000028,49.7840014 Z" id="Shape" opacity="0.74"></path>
                            <path d="M0.980000028,115.640003 C0.980000028,115.640003 124.264004,127.988004 124.264004,148.568004 L124.264004,99.1760028 C124.264004,99.1760028 124.264004,78.5960022 0.980000028,66.2480019 L0.980000028,115.640003 L0.980000028,115.640003 Z" id="Shape" opacity="0.744694496"></path>
                        </g>
                        <path d="M124.460004,0.980000028 L124.460004,50.3720014 C124.460004,50.3720014 124.460004,70.952002 1.17600003,83.3000024 L1.17600003,33.712001 C0.980000028,33.712001 124.460004,21.5600006 124.460004,0.980000028" id="Shape"></path>
                        <path d="M0.980000028,99.5680028 C0.980000028,99.5680028 124.264004,87.2200025 124.264004,66.6400019 L124.264004,116.032003 C124.264004,116.032003 124.264004,136.612004 0.980000028,148.960004 L0.980000028,99.5680028 L0.980000028,99.5680028 Z" id="Shape"></path>
                        <path d="M0.980000028,214.620006 L0.980000028,165.228005 C0.980000028,165.228005 124.264004,152.880004 124.264004,132.300004 L124.264004,181.692005 C124.460004,181.888005 124.460004,202.272006 0.980000028,214.620006" id="Shape"></path>
                    </g>
                </g>
            </g>
        </g>
    </g>
</svg>